# xmcd
#
# Track frame offsets:
#	151
#	6194
#	18914
#	38000
#	45078
#	57190
#	70493
#	79528
#	90829
#	97393
#	110063
#	133163
#	150730
#	166868
#	181408
#	191258
#	207915
#	224200
#	237803
#	253496
#	262716
#	272003
#	285718
#
# Disc length: 3921 seconds
#
# Revision: 1
# Processed by: cddbd v1.5.1PL0 Copyright (c) Steve Scherf et al.
# Submitted via: audiograbber 1.83.01
#
DISCID=400f4f17
DTITLE=Elvis Presley - Flip, Flop and Fly (Las Vegas 02-09-1973)
DYEAR=1900
DGENRE=
TTITLE0=Theme 2001
TTITLE1=C. C. Rider
TTITLE2=I Got A Woman - Amen
TTITLE3=Love Me
TTITLE4=Steamroller Blues
TTITLE5=You Gave Me A Mountain
TTITLE6=Trouble
TTITLE7=Medley
TTITLE8=Love Me Tender
TTITLE9=Fever
TTITLE10=Bridge Over Troubled Water
TTITLE11=Suspicious Minds
TTITLE12=Introductions
TTITLE13=My Boy
TTITLE14=I Can't Stop Loving You
TTITLE15=An American Trilogy
TTITLE16=The First Time Ever I Saw Your Face
TTITLE17=Mystery Train - Tiger Man
TTITLE18=How Great Thou Art
TTITLE19=A Bik Hunk O'love
TTITLE20=Release Me
TTITLE21=What Now My Love
TTITLE22=Can't Help Falling In Love
EXTD=
EXTT0=
EXTT1=
EXTT2=
EXTT3=
EXTT4=
EXTT5=
EXTT6=
EXTT7=
EXTT8=
EXTT9=
EXTT10=
EXTT11=
EXTT12=
EXTT13=
EXTT14=
EXTT15=
EXTT16=
EXTT17=
EXTT18=
EXTT19=
EXTT20=
EXTT21=
EXTT22=
PLAYORDER=
